<svg width="16" height="16" viewBox="0 0 16 16" fill="none" xmlns="http://www.w3.org/2000/svg">
<path d="M6.57326 12.6667L7.69327 11.72C7.85993 11.58 8.13993 11.58 8.31327 11.72L9.4266 12.6667C9.6866 12.8 10.0066 12.6667 10.0999 12.3867L10.3133 11.7467C10.3666 11.5934 10.3133 11.3667 10.1999 11.2534L9.1066 10.1534C9.0266 10.0734 8.9666 9.92003 8.9666 9.81337V8.58003C8.9666 8.30003 9.17326 8.1667 9.43326 8.27337L11.6666 9.23337C12.0333 9.39337 12.3399 9.19337 12.3399 8.79337V8.17337C12.3399 7.85337 12.0999 7.48003 11.7999 7.35337L9.17326 6.22003C9.05993 6.17337 8.97327 6.03337 8.97327 5.91337V4.53337C8.97327 4.08003 8.63993 3.5467 8.23993 3.34003C8.09326 3.2667 7.9266 3.2667 7.77993 3.34003C7.37327 3.54003 7.0466 4.08003 7.0466 4.53337V5.91337C7.0466 6.03337 6.95327 6.17337 6.8466 6.22003L4.21993 7.35337C3.9266 7.48003 3.67993 7.85337 3.67993 8.17337V8.79337C3.67993 9.19337 3.97993 9.39337 4.35327 9.23337L6.5866 8.27337C6.83993 8.16003 7.05327 8.30003 7.05327 8.58003V9.81337C7.05327 9.9267 6.9866 10.08 6.91327 10.1534L5.79993 11.2467C5.6866 11.36 5.63326 11.5867 5.6866 11.74L5.89993 12.38C5.99327 12.6667 6.3066 12.8 6.57326 12.6667Z" stroke="#282828" stroke-linecap="round" stroke-linejoin="round"/>
<path d="M5.99992 14.6667H9.99992C13.3333 14.6667 14.6666 13.3334 14.6666 10V6.00004C14.6666 2.66671 13.3333 1.33337 9.99992 1.33337H5.99992C2.66659 1.33337 1.33325 2.66671 1.33325 6.00004V10C1.33325 13.3334 2.66659 14.6667 5.99992 14.6667Z" stroke="#282828" stroke-linecap="round" stroke-linejoin="round"/>
</svg>
